/' ABSTRACT FACTORY '/

@startuml

skinparam ClassBackgroundColor #White
skinparam NoteBackgroundColor #LightGreen

'skinparam ClassFontColor #AliceBlue
skinparam ClassBorderColor #Navy
skinparam NoteBorderColor #Navy

'skinparam ClassStereotypeFontSize 5
'skinparam CircledCharacterFontSize 5
'skinparam CircledCharacterRadius 5
'skinparam ClassBorderThickness 5
'skinparam Shadowing false



class Client

interface AbstractFactory {
    + createProductA()
    + createProductB()
}

class ConcreteFactory {
    + createProductA()
    + createProductB()
}

interface AbstractProduct

class ConcreteProduct

hide empty members

AbstractFactory <|-- ConcreteFactory
AbstractProduct <|-- ConcreteProduct
Client --> AbstractFactory
Client --> AbstractProduct

note as N1
    <b><color:royalBlue>Abstract Factory</color></b>
    <b>Type:</b> Creational
    Provides an interface for creating
    families of related or dependent
    objects without specifying their
    concrete class.
end note

@enduml
